<svg width="18" height="17" viewBox="0 0 18 17" fill="none" xmlns="http://www.w3.org/2000/svg">
<path d="M7.46623 3.88047C7.43383 4.70531 7.58145 5.5276 7.89984 6.29592C8.21823 7.06424 8.70055 7.76205 9.31662 8.3457C9.9327 8.92935 10.6693 9.38628 11.4803 9.68792C12.2913 9.98955 13.1592 10.1294 14.0299 10.0987C13.1592 10.068 12.2913 10.2079 11.4803 10.5095C10.6693 10.8111 9.9327 11.2681 9.31663 11.8517C8.70056 12.4354 8.21824 13.1332 7.89984 13.9015C7.58145 14.6698 7.43383 15.4921 7.46623 16.3169C7.49862 15.4921 7.351 14.6698 7.03261 13.9015C6.71422 13.1332 6.2319 12.4354 5.61583 11.8517C4.99976 11.2681 4.26318 10.8111 3.45218 10.5095C2.64118 10.2079 1.77321 10.068 0.902553 10.0987C1.77321 10.1294 2.64119 9.98955 3.45219 9.68792C4.26319 9.38628 4.99976 8.92935 5.61583 8.3457C6.23191 7.76205 6.71422 7.06424 7.03262 6.29592C7.35101 5.5276 7.49862 4.70531 7.46623 3.88047ZM7.46623 3.19751C7.37156 3.19751 7.27781 3.21518 7.19035 3.2495C7.10288 3.28382 7.02341 3.33413 6.95647 3.39755C6.88953 3.46096 6.83643 3.53625 6.8002 3.61912C6.76397 3.70198 6.74532 3.79079 6.74532 3.88047C6.7813 4.61643 6.65479 5.35139 6.37389 6.03839C6.09299 6.72539 5.66388 7.34931 5.11398 7.87026C4.56409 8.39122 3.90551 8.79774 3.18035 9.06386C2.45518 9.32997 1.67938 9.44982 0.902547 9.41574C0.711351 9.41574 0.527985 9.4877 0.392789 9.61578C0.257593 9.74386 0.181641 9.91757 0.181641 10.0987C0.181641 10.2798 0.257593 10.4536 0.392789 10.5816C0.527985 10.7097 0.711351 10.7817 0.902547 10.7817C1.67938 10.7476 2.45518 10.8674 3.18034 11.1335C3.90551 11.3997 4.56409 11.8062 5.11398 12.3271C5.66388 12.8481 6.09299 13.472 6.37389 14.159C6.65479 14.846 6.7813 15.581 6.74532 16.3169C6.74532 16.4981 6.82127 16.6718 6.95647 16.7998C7.09167 16.9279 7.27503 16.9999 7.46623 16.9999C7.65742 16.9999 7.84079 16.9279 7.97599 16.7998C8.11118 16.6718 8.18713 16.4981 8.18713 16.3169C8.15116 15.581 8.27767 14.846 8.55856 14.159C8.83946 13.472 9.26857 12.8481 9.81847 12.3271C10.3684 11.8062 11.0269 11.3997 11.7521 11.1335C12.4773 10.8674 13.2531 10.7476 14.0299 10.7817C14.2211 10.7817 14.4045 10.7097 14.5397 10.5816C14.6749 10.4536 14.7508 10.2798 14.7508 10.0987C14.7508 9.91757 14.6749 9.74386 14.5397 9.61578C14.4045 9.4877 14.2211 9.41574 14.0299 9.41574C13.2531 9.44982 12.4773 9.32997 11.7521 9.06386C11.0269 8.79774 10.3684 8.39122 9.81847 7.87026C9.26857 7.34931 8.83946 6.72539 8.55856 6.03839C8.27767 5.35139 8.15116 4.61643 8.18713 3.88047C8.18713 3.69934 8.11118 3.52563 7.97599 3.39755C7.84079 3.26946 7.65742 3.19751 7.46623 3.19751Z" fill="#222222"/>
<path d="M13.6002 0.795183C13.583 1.21557 13.6614 1.63466 13.8305 2.02624C13.9996 2.41782 14.2558 2.77347 14.583 3.07093C14.9102 3.36839 15.3014 3.60128 15.7321 3.75501C16.1629 3.90874 16.6239 3.98001 17.0863 3.96437C16.6239 3.94873 16.1629 4.02 15.7321 4.17374C15.3014 4.32747 14.9102 4.56035 14.583 4.85781C14.2558 5.15528 13.9996 5.51092 13.8305 5.9025C13.6614 6.29408 13.583 6.71317 13.6002 7.13356C13.6174 6.71317 13.539 6.29408 13.3699 5.9025C13.2008 5.51092 12.9446 5.15528 12.6174 4.85781C12.2902 4.56035 11.899 4.32747 11.4683 4.17374C11.0375 4.02 10.5765 3.94873 10.1141 3.96437C10.5765 3.98001 11.0375 3.90874 11.4683 3.75501C11.899 3.60127 12.2902 3.36839 12.6174 3.07093C12.9446 2.77347 13.2008 2.41782 13.3699 2.02624C13.539 1.63466 13.6174 1.21557 13.6002 0.795183ZM13.6002 0.130371C13.4063 0.130371 13.2202 0.200414 13.0831 0.32509C12.946 0.449766 12.8689 0.618864 12.8689 0.795183C12.8859 1.12816 12.8262 1.46068 12.6938 1.77151C12.5613 2.08234 12.359 2.36462 12.0998 2.60032C11.8405 2.83602 11.53 3.01995 11.1881 3.14035C10.8462 3.26075 10.4804 3.31497 10.1141 3.29955C9.92015 3.29955 9.73415 3.36959 9.597 3.49427C9.45986 3.61894 9.38281 3.78804 9.38281 3.96436C9.38281 4.14068 9.45986 4.30978 9.597 4.43445C9.73415 4.55913 9.92015 4.62917 10.1141 4.62917C10.4804 4.61375 10.8462 4.66798 11.1881 4.78838C11.53 4.90878 11.8405 5.09271 12.0997 5.32841C12.359 5.56411 12.5613 5.84639 12.6938 6.15722C12.8262 6.46804 12.8859 6.80057 12.8689 7.13354C12.8689 7.30986 12.9459 7.47896 13.0831 7.60364C13.2202 7.72831 13.4062 7.79836 13.6002 7.79836C13.7941 7.79836 13.9801 7.72831 14.1173 7.60364C14.2544 7.47896 14.3315 7.30986 14.3315 7.13354C14.3145 6.80057 14.3742 6.46804 14.5066 6.15721C14.639 5.84639 14.8414 5.5641 15.1006 5.3284C15.3599 5.0927 15.6704 4.90877 16.0123 4.78837C16.3543 4.66797 16.72 4.61375 17.0863 4.62917C17.2803 4.62917 17.4663 4.55913 17.6034 4.43445C17.7405 4.30978 17.8176 4.14068 17.8176 3.96436C17.8176 3.78804 17.7405 3.61894 17.6034 3.49427C17.4663 3.36959 17.2803 3.29955 17.0863 3.29955C16.72 3.31497 16.3543 3.26075 16.0123 3.14035C15.6704 3.01995 15.3599 2.83602 15.1006 2.60032C14.8414 2.36462 14.6391 2.08234 14.5066 1.77151C14.3742 1.46069 14.3145 1.12816 14.3315 0.795183C14.3315 0.618864 14.2544 0.449766 14.1173 0.32509C13.9801 0.200414 13.7942 0.130371 13.6002 0.130371Z" fill="#222222"/>
</svg>
