<svg width="44" height="44" viewBox="0 0 44 44" fill="none" xmlns="http://www.w3.org/2000/svg">
<g filter="url(#filter0_d_178_255)">
<rect x="4" y="1" width="36" height="36" rx="9" fill="white"/>
<rect x="4.25" y="1.25" width="35.5" height="35.5" rx="8.75" stroke="#E7E7E7" stroke-width="0.5"/>
</g>
<rect x="14.5" y="11.5" width="11" height="11" rx="1.5" fill="white" stroke="#222222"/>
<circle cx="25.5" cy="21.5" r="6" fill="white" stroke="#222222"/>
<mask id="path-5-inside-1_178_255" fill="white">
<path fill-rule="evenodd" clip-rule="evenodd" d="M26 15.0189V21C26 22.1046 25.1046 23 24 23H19.1739C19.0602 22.5185 19 22.0163 19 21.5C19 17.9101 21.9101 15 25.5 15C25.6682 15 25.835 15.0064 26 15.0189Z"/>
</mask>
<path fill-rule="evenodd" clip-rule="evenodd" d="M26 15.0189V21C26 22.1046 25.1046 23 24 23H19.1739C19.0602 22.5185 19 22.0163 19 21.5C19 17.9101 21.9101 15 25.5 15C25.6682 15 25.835 15.0064 26 15.0189Z" fill="#222222"/>
<path d="M26 15.0189H27V14.0921L26.0759 14.0218L26 15.0189ZM19.1739 23L18.2007 23.2299L18.3826 24H19.1739V23ZM25 15.0189V21H27V15.0189H25ZM25 21C25 21.5523 24.5523 22 24 22V24C25.6569 24 27 22.6569 27 21H25ZM24 22H19.1739V24H24V22ZM20.1471 22.7701C20.0511 22.3634 20 21.9383 20 21.5H18C18 22.0942 18.0693 22.6736 18.2007 23.2299L20.1471 22.7701ZM20 21.5C20 18.4624 22.4624 16 25.5 16V14C21.3579 14 18 17.3579 18 21.5H20ZM25.5 16C25.6429 16 25.7843 16.0054 25.9241 16.0161L26.0759 14.0218C25.8856 14.0074 25.6936 14 25.5 14V16Z" fill="#222222" mask="url(#path-5-inside-1_178_255)"/>
<defs>
<filter id="filter0_d_178_255" x="0" y="0" width="44" height="44" filterUnits="userSpaceOnUse" color-interpolation-filters="sRGB">
<feFlood flood-opacity="0" result="BackgroundImageFix"/>
<feColorMatrix in="SourceAlpha" type="matrix" values="0 0 0 0 0 0 0 0 0 0 0 0 0 0 0 0 0 0 127 0" result="hardAlpha"/>
<feOffset dy="3"/>
<feGaussianBlur stdDeviation="2"/>
<feComposite in2="hardAlpha" operator="out"/>
<feColorMatrix type="matrix" values="0 0 0 0 0 0 0 0 0 0 0 0 0 0 0 0 0 0 0.04 0"/>
<feBlend mode="normal" in2="BackgroundImageFix" result="effect1_dropShadow_178_255"/>
<feBlend mode="normal" in="SourceGraphic" in2="effect1_dropShadow_178_255" result="shape"/>
</filter>
</defs>
</svg>
