<svg width="17" height="14" viewBox="0 0 17 14" fill="none" xmlns="http://www.w3.org/2000/svg">
<path d="M9.52031 11.352C9.49583 11.3335 9.47339 11.313 9.45299 11.2905C8.22555 9.92143 7.12867 8.4102 6.36841 6.74481C5.65031 5.17068 5.41944 3.44683 6.38745 1.91475C7.32044 0.438723 9.0766 -0.272967 10.7678 0.0962097C12.6046 0.497176 13.9133 2.07677 13.9955 3.95547C14.0445 5.06813 13.6555 6.20813 13.1662 7.18713C12.4434 8.63376 11.4672 9.97373 10.3894 11.1725C10.1296 11.4617 9.87086 11.6152 9.52031 11.352ZM11.98 7.11193C12.7144 5.79383 13.3274 4.09357 12.5311 2.649C11.404 0.604511 8.45948 0.578532 7.26604 2.56627C6.73188 3.45606 6.72338 4.43882 7.03619 5.43389C7.34458 6.4146 7.8614 7.35497 8.43602 8.21399C8.8735 8.86825 9.34679 9.49563 9.8559 10.0961C9.85725 10.0977 9.85893 10.0989 9.86081 10.0998C9.8627 10.1006 9.86475 10.1011 9.86684 10.1011C9.86893 10.1011 9.871 10.1006 9.87292 10.0998C9.87485 10.0989 9.87658 10.0977 9.878 10.0961C10.6838 9.17522 11.3845 8.18049 11.98 7.11193Z" fill="#222222"/>
<path d="M11.5898 3.94871C11.5898 4.42475 11.4007 4.88129 11.0641 5.21789C10.7275 5.5545 10.2709 5.74361 9.7949 5.74361C9.31886 5.74361 8.86232 5.5545 8.52571 5.21789C8.1891 4.88129 8 4.42475 8 3.94871C8 3.47267 8.1891 3.01613 8.52571 2.67952C8.86232 2.34291 9.31886 2.15381 9.7949 2.15381C10.2709 2.15381 10.7275 2.34291 11.0641 2.67952C11.4007 3.01613 11.5898 3.47267 11.5898 3.94871ZM10.5633 3.94903C10.5633 3.74524 10.4823 3.54981 10.3382 3.40571C10.1941 3.26161 9.99868 3.18066 9.7949 3.18066C9.59111 3.18066 9.39568 3.26161 9.25158 3.40571C9.10748 3.54981 9.02653 3.74524 9.02653 3.94903C9.02653 4.15281 9.10748 4.34825 9.25158 4.49235C9.39568 4.63645 9.59111 4.7174 9.7949 4.7174C9.99868 4.7174 10.1941 4.63645 10.3382 4.49235C10.4823 4.34825 10.5633 4.15281 10.5633 3.94903Z" fill="#222222"/>
<path d="M14.7327 12.9075C14.1516 11.7324 13.5662 10.5593 12.9766 9.38837C12.7922 9.02263 13.0974 8.59598 13.4959 8.61617C13.7658 8.62996 13.8887 8.80493 14.0112 9.04955C14.7094 10.4446 15.4071 11.8396 16.1042 13.2346C16.2321 13.4903 16.1042 13.8426 15.833 13.9553C15.7612 13.9849 15.6472 13.9997 15.491 13.9997C10.5712 14.0002 5.65143 14.0003 0.731633 14.0001C0.543386 14.0001 0.416167 13.9884 0.349978 13.9651C0.120446 13.8843 -0.0347073 13.6229 0.00668927 13.3789C0.0165616 13.3222 0.0538073 13.229 0.118426 13.0993C0.811958 11.7124 1.50515 10.3252 2.19801 8.93784C2.32961 8.67404 2.52481 8.61751 2.82334 8.61718C3.87407 8.61606 4.92491 8.61606 5.97587 8.61718C6.12126 8.6174 6.22873 8.63153 6.29829 8.65957C6.73682 8.83689 6.72101 9.48629 6.2855 9.65452C6.21841 9.68054 6.11004 9.69344 5.96039 9.69322C4.98774 9.69187 4.01497 9.69277 3.0421 9.69591C3.03654 9.6959 3.03109 9.69744 3.02639 9.70036C3.02169 9.70327 3.01792 9.70745 3.01551 9.7124L1.41888 12.9048C1.41792 12.9068 1.41747 12.9089 1.4176 12.9111C1.41772 12.9133 1.4184 12.9154 1.41957 12.9172C1.42075 12.9191 1.42238 12.9206 1.42432 12.9217C1.42626 12.9227 1.42844 12.9233 1.43066 12.9234H14.723C14.7248 12.9234 14.7266 12.9229 14.7282 12.9221C14.7299 12.9212 14.7312 12.9199 14.7322 12.9183C14.7332 12.9167 14.7337 12.9149 14.7338 12.913C14.7339 12.9111 14.7336 12.9092 14.7327 12.9075Z" fill="#222222"/>
</svg>
