<svg width="14" height="16" viewBox="0 0 14 16" fill="none" xmlns="http://www.w3.org/2000/svg">
<path d="M3.20802 0.862607V0.864062H3.50355H3.50547L3.50547 0.864099C4.14541 0.888615 4.76879 0.935181 5.38732 1.11227L5.38733 1.11227C6.39631 1.40133 7.2633 2.13368 7.84686 2.98461L7.84687 2.98462C7.92298 3.09564 7.99892 3.21021 8.07503 3.32504C8.26259 3.60803 8.4512 3.89259 8.64611 4.12946C8.64611 4.12946 8.64611 4.12947 8.64611 4.12947M3.20802 0.862607L9.66212 5.08667C9.25833 4.83336 8.90678 4.52488 8.6075 4.16124L8.64611 4.12947M3.20802 0.862607L3.19622 0.865476C3.01264 0.910087 2.92721 1.05193 2.94954 1.19029C2.97169 1.32752 3.09663 1.44249 3.29088 1.44423M3.20802 0.862607L8.98478 6.5433M8.64611 4.12947C8.93385 4.47908 9.27043 4.77711 9.65605 5.02364M8.64611 4.12947L9.65605 5.02364M9.65605 5.02364C9.79867 4.70194 9.94145 4.37849 10.0844 4.0533L10.0844 4.05327C10.1318 3.94568 10.2237 3.88589 10.3238 3.87884C10.423 3.87186 10.5257 3.91672 10.5982 4.00761C11.2243 4.79211 11.8509 5.57624 12.478 6.35999L12.439 6.39122L12.478 6.35999C12.5817 6.48954 12.6037 6.61956 12.5418 6.72198C12.4825 6.8201 12.3575 6.87227 12.2139 6.87661M9.65605 5.02364L12.2124 6.82664M12.2139 6.87661L12.2124 6.82664M12.2139 6.87661C12.2139 6.87661 12.2139 6.87661 12.2139 6.87661L12.2124 6.82664M12.2139 6.87661C11.2408 6.90645 10.2677 6.93656 9.29441 6.96696L9.29285 6.91698M12.2124 6.82664C11.2393 6.85647 10.2661 6.88659 9.29285 6.91698M9.29285 6.91698L9.29441 6.96696C9.17878 6.97056 9.07363 6.93017 9.01051 6.85209C8.9458 6.77206 8.93261 6.66157 8.98478 6.5433M9.29285 6.91698L8.98478 6.5433M8.98478 6.5433C9.12946 6.2152 9.27423 5.88737 9.41909 5.55981C8.82195 5.1927 8.32651 4.71935 7.93314 4.14007L7.93312 4.14004C7.86863 4.04495 7.79831 3.94018 7.7277 3.83496C7.57338 3.60504 7.41767 3.37305 7.31841 3.23551C6.97896 2.76533 6.56978 2.37428 6.09071 2.06208L6.09071 2.06208C5.27147 1.5281 4.25334 1.45295 3.29088 1.44423M3.29088 1.44423L3.29134 1.39423M3.29088 1.44423L3.29134 1.39423M3.29134 1.39423C2.94458 1.39113 2.88604 0.992308 3.20802 0.914062L7.9745 4.11198C7.91045 4.01753 7.84041 3.91318 7.76996 3.8082C7.61534 3.57784 7.45873 3.3445 7.35896 3.20625C7.01595 2.73115 6.60231 2.3358 6.11801 2.02019C5.28546 1.47754 4.25392 1.40295 3.29134 1.39423ZM9.47439 5.55839C9.32634 5.89314 9.17839 6.22816 9.03053 6.56347L8.98479 6.54329L9.47439 5.55839ZM9.47439 5.55839C9.47666 5.55336 9.47702 5.54768 9.47542 5.5424L9.47439 5.55839ZM9.68198 5.08504C9.68374 5.08346 9.68513 5.08152 9.68605 5.07935L9.68198 5.08504ZM11.7403 6.36132C11.739 6.35501 11.7384 6.34521 11.7434 6.33432C11.7484 6.32322 11.7564 6.31717 11.7621 6.31407L11.7739 6.32879L11.7746 6.34844L11.775 6.36026L11.7592 6.36074H11.7592L11.7403 6.36132ZM10.4246 4.72173L11.6969 6.31262L9.69307 6.37387C9.94042 5.82265 10.1843 5.27194 10.4246 4.72173Z" fill="#222222" stroke="#222222" stroke-width="0.1"/>
<mask id="path-2-outside-1_178_383" maskUnits="userSpaceOnUse" x="0" y="2.55908" width="14" height="13" fill="black">
<rect fill="white" y="2.55908" width="14" height="13"/>
<path d="M10.7829 15.3246H3.21169C2.68593 15.2543 2.43909 14.9112 2.43909 14.4079C2.43947 11.5401 2.43956 8.67125 2.43937 5.80151C2.43939 5.799 2.43887 5.79651 2.43785 5.7942C2.43683 5.7919 2.43533 5.78983 2.43344 5.78814C2.43156 5.78644 2.42934 5.78515 2.42692 5.78435C2.4245 5.78355 2.42193 5.78326 2.41939 5.7835C1.83593 5.8336 1.31186 5.6726 1.07937 5.08858C0.840697 4.48964 1.1579 3.78262 1.79484 3.60136C1.89203 3.57378 2.02873 3.5597 2.20492 3.55914C3.31949 3.55576 4.46164 3.69734 5.3958 4.36073C5.90524 4.7225 6.33615 5.16176 6.68854 5.67851C6.85037 5.91578 7.00743 6.14686 7.16983 6.39398C7.95397 7.58567 9.13102 8.2181 10.5262 8.43257C10.8985 8.4898 11.3389 8.52339 11.8474 8.53334C13.2473 8.56064 13.4317 10.4923 12.0706 10.7549C11.9284 10.7825 11.7444 10.765 11.5803 10.7822C11.5764 10.7827 11.5729 10.7845 11.5704 10.7874C11.5678 10.7902 11.5665 10.7939 11.5665 10.7977C11.565 11.9749 11.565 13.1519 11.5665 14.3285C11.5667 14.5032 11.5538 14.6356 11.5279 14.7257C11.4283 15.0728 11.1799 15.2725 10.7829 15.3246ZM6.39413 6.08747C5.91002 5.35343 5.2455 4.7255 4.4411 4.38325C3.77376 4.09954 2.97921 4.04409 2.26093 4.03762C2.09037 4.03612 1.96671 4.04859 1.88997 4.07505C1.60795 4.17215 1.43401 4.48992 1.48749 4.77672C1.57277 5.23409 1.93894 5.3402 2.35578 5.31037C2.51002 5.2993 2.61801 5.29489 2.67974 5.29714C3.48414 5.32838 4.22916 5.77787 4.75971 6.37625C5.12223 6.7853 5.47799 7.23713 5.82699 7.73175C5.98067 7.94978 6.09213 8.10074 6.16137 8.18461C6.85291 9.02251 7.78875 9.65269 8.84562 9.93471C9.76712 10.1809 10.7059 10.3006 11.6619 10.2939C11.8659 10.2924 11.9982 10.2836 12.059 10.2677C12.4103 10.1751 12.6107 9.78666 12.4837 9.44188C12.3783 9.15517 12.1519 9.01228 11.8046 9.01322C9.95288 9.01801 8.15915 8.4869 6.98885 6.96674C6.79774 6.71822 6.58834 6.38244 6.39413 6.08747ZM4.75492 8.97776C5.08873 9.26822 5.38483 9.54461 5.76507 9.95526C6.61648 10.8748 7.59567 11.4377 8.82705 11.6941C9.56503 11.848 10.3123 11.9356 11.0689 11.957C11.0712 11.9571 11.0736 11.9567 11.0758 11.9558C11.078 11.955 11.0801 11.9537 11.0818 11.9521C11.0835 11.9504 11.0848 11.9485 11.0858 11.9463C11.0867 11.9442 11.0872 11.9419 11.0872 11.9395V10.778C11.0872 10.7745 11.0858 10.7711 11.0835 10.7686C11.0811 10.7661 11.0779 10.7646 11.0745 10.7644C10.3975 10.7295 9.72893 10.6381 9.06882 10.49C7.60186 10.1607 6.41243 9.36701 5.54103 8.15675C5.12391 7.57779 4.82191 7.1784 4.44194 6.74299C4.05606 6.30025 3.52327 5.91888 2.93755 5.80123C2.93515 5.80077 2.93267 5.80084 2.9303 5.80144C2.92793 5.80203 2.92572 5.80314 2.92384 5.80467C2.92196 5.8062 2.92044 5.80813 2.91941 5.81031C2.91837 5.81249 2.91784 5.81486 2.91785 5.81727V8.13198C2.91782 8.13587 2.91923 8.13964 2.92182 8.1426C2.92441 8.14555 2.928 8.14747 2.93192 8.14802C3.62619 8.24766 4.23385 8.52424 4.75492 8.97776ZM5.77971 12.411C6.58524 12.9396 7.51602 13.2855 8.46791 13.4256C9.32898 13.5521 10.1954 13.624 11.0672 13.6412C11.0698 13.6413 11.0724 13.6408 11.0748 13.6398C11.0772 13.6388 11.0794 13.6374 11.0813 13.6356C11.0831 13.6337 11.0846 13.6315 11.0856 13.6291C11.0866 13.6267 11.0872 13.6241 11.0872 13.6215V12.4546C11.0872 12.4501 11.0854 12.4457 11.0822 12.4425C11.0791 12.4392 11.0748 12.4373 11.0703 12.4371C10.263 12.4156 9.46492 12.3211 8.67591 12.1537C7.43524 11.8906 6.34994 11.2882 5.48474 10.3656C5.11744 9.97412 4.77941 9.6268 4.4259 9.32029C4.0039 8.95421 3.506 8.72595 2.93221 8.6355C2.93042 8.63522 2.9286 8.63532 2.92686 8.63582C2.92512 8.63631 2.92351 8.63717 2.92215 8.63835C2.92078 8.63953 2.91968 8.641 2.91894 8.64265C2.9182 8.64429 2.91783 8.64608 2.91785 8.64789V11.2356C2.91784 11.2384 2.91888 11.241 2.92076 11.2431C2.92264 11.2451 2.92522 11.2464 2.92798 11.2466C3.71682 11.3115 4.44391 11.5553 5.10928 11.9781C5.33369 12.1207 5.55717 12.265 5.77971 12.411ZM10.9202 14.1174C10.119 14.0959 9.32148 14.031 8.52758 13.923C7.3995 13.7693 6.35276 13.3764 5.41072 12.7431C4.61842 12.2109 3.89789 11.8129 2.93221 11.7307C2.93038 11.7305 2.92853 11.7308 2.9268 11.7314C2.92506 11.7319 2.92347 11.7329 2.92212 11.7341C2.92077 11.7354 2.91969 11.7369 2.91895 11.7386C2.91822 11.7403 2.91784 11.7421 2.91785 11.7439V13.3952C2.91785 13.3989 2.91927 13.4025 2.92182 13.4052C2.92438 13.4079 2.92789 13.4096 2.93164 13.4099C3.57262 13.4609 4.17512 13.6348 4.73916 13.9317C5.06622 14.1039 5.48418 14.3667 5.99305 14.72C6.0682 14.7724 6.19148 14.8464 6.30097 14.8464C7.75573 14.8462 9.21049 14.846 10.6652 14.8459C11.1305 14.8459 11.1069 14.4808 11.0838 14.1394C11.0836 14.1355 11.0819 14.1318 11.0792 14.1291C11.0764 14.1263 11.0727 14.1247 11.0689 14.1245C11.0188 14.1211 10.9692 14.1188 10.9202 14.1174ZM2.9187 14.4538C2.92038 14.6745 3.04 14.8467 3.27699 14.8467C3.95174 14.8467 4.6263 14.8464 5.30067 14.8459C5.31587 14.8459 5.31709 14.8417 5.30433 14.8335C4.52863 14.3322 3.85145 13.9705 2.93192 13.8923C2.93021 13.8921 2.92847 13.8923 2.92683 13.8928C2.92518 13.8933 2.92366 13.8942 2.92236 13.8954C2.92106 13.8965 2.92001 13.898 2.91929 13.8996C2.91856 13.9012 2.91817 13.9029 2.91813 13.9047C2.91701 14.0876 2.91719 14.2707 2.9187 14.4538Z"/>
</mask>
<path d="M10.7829 15.3246H3.21169C2.68593 15.2543 2.43909 14.9112 2.43909 14.4079C2.43947 11.5401 2.43956 8.67125 2.43937 5.80151C2.43939 5.799 2.43887 5.79651 2.43785 5.7942C2.43683 5.7919 2.43533 5.78983 2.43344 5.78814C2.43156 5.78644 2.42934 5.78515 2.42692 5.78435C2.4245 5.78355 2.42193 5.78326 2.41939 5.7835C1.83593 5.8336 1.31186 5.6726 1.07937 5.08858C0.840697 4.48964 1.1579 3.78262 1.79484 3.60136C1.89203 3.57378 2.02873 3.5597 2.20492 3.55914C3.31949 3.55576 4.46164 3.69734 5.3958 4.36073C5.90524 4.7225 6.33615 5.16176 6.68854 5.67851C6.85037 5.91578 7.00743 6.14686 7.16983 6.39398C7.95397 7.58567 9.13102 8.2181 10.5262 8.43257C10.8985 8.4898 11.3389 8.52339 11.8474 8.53334C13.2473 8.56064 13.4317 10.4923 12.0706 10.7549C11.9284 10.7825 11.7444 10.765 11.5803 10.7822C11.5764 10.7827 11.5729 10.7845 11.5704 10.7874C11.5678 10.7902 11.5665 10.7939 11.5665 10.7977C11.565 11.9749 11.565 13.1519 11.5665 14.3285C11.5667 14.5032 11.5538 14.6356 11.5279 14.7257C11.4283 15.0728 11.1799 15.2725 10.7829 15.3246ZM6.39413 6.08747C5.91002 5.35343 5.2455 4.7255 4.4411 4.38325C3.77376 4.09954 2.97921 4.04409 2.26093 4.03762C2.09037 4.03612 1.96671 4.04859 1.88997 4.07505C1.60795 4.17215 1.43401 4.48992 1.48749 4.77672C1.57277 5.23409 1.93894 5.3402 2.35578 5.31037C2.51002 5.2993 2.61801 5.29489 2.67974 5.29714C3.48414 5.32838 4.22916 5.77787 4.75971 6.37625C5.12223 6.7853 5.47799 7.23713 5.82699 7.73175C5.98067 7.94978 6.09213 8.10074 6.16137 8.18461C6.85291 9.02251 7.78875 9.65269 8.84562 9.93471C9.76712 10.1809 10.7059 10.3006 11.6619 10.2939C11.8659 10.2924 11.9982 10.2836 12.059 10.2677C12.4103 10.1751 12.6107 9.78666 12.4837 9.44188C12.3783 9.15517 12.1519 9.01228 11.8046 9.01322C9.95288 9.01801 8.15915 8.4869 6.98885 6.96674C6.79774 6.71822 6.58834 6.38244 6.39413 6.08747ZM4.75492 8.97776C5.08873 9.26822 5.38483 9.54461 5.76507 9.95526C6.61648 10.8748 7.59567 11.4377 8.82705 11.6941C9.56503 11.848 10.3123 11.9356 11.0689 11.957C11.0712 11.9571 11.0736 11.9567 11.0758 11.9558C11.078 11.955 11.0801 11.9537 11.0818 11.9521C11.0835 11.9504 11.0848 11.9485 11.0858 11.9463C11.0867 11.9442 11.0872 11.9419 11.0872 11.9395V10.778C11.0872 10.7745 11.0858 10.7711 11.0835 10.7686C11.0811 10.7661 11.0779 10.7646 11.0745 10.7644C10.3975 10.7295 9.72893 10.6381 9.06882 10.49C7.60186 10.1607 6.41243 9.36701 5.54103 8.15675C5.12391 7.57779 4.82191 7.1784 4.44194 6.74299C4.05606 6.30025 3.52327 5.91888 2.93755 5.80123C2.93515 5.80077 2.93267 5.80084 2.9303 5.80144C2.92793 5.80203 2.92572 5.80314 2.92384 5.80467C2.92196 5.8062 2.92044 5.80813 2.91941 5.81031C2.91837 5.81249 2.91784 5.81486 2.91785 5.81727V8.13198C2.91782 8.13587 2.91923 8.13964 2.92182 8.1426C2.92441 8.14555 2.928 8.14747 2.93192 8.14802C3.62619 8.24766 4.23385 8.52424 4.75492 8.97776ZM5.77971 12.411C6.58524 12.9396 7.51602 13.2855 8.46791 13.4256C9.32898 13.5521 10.1954 13.624 11.0672 13.6412C11.0698 13.6413 11.0724 13.6408 11.0748 13.6398C11.0772 13.6388 11.0794 13.6374 11.0813 13.6356C11.0831 13.6337 11.0846 13.6315 11.0856 13.6291C11.0866 13.6267 11.0872 13.6241 11.0872 13.6215V12.4546C11.0872 12.4501 11.0854 12.4457 11.0822 12.4425C11.0791 12.4392 11.0748 12.4373 11.0703 12.4371C10.263 12.4156 9.46492 12.3211 8.67591 12.1537C7.43524 11.8906 6.34994 11.2882 5.48474 10.3656C5.11744 9.97412 4.77941 9.6268 4.4259 9.32029C4.0039 8.95421 3.506 8.72595 2.93221 8.6355C2.93042 8.63522 2.9286 8.63532 2.92686 8.63582C2.92512 8.63631 2.92351 8.63717 2.92215 8.63835C2.92078 8.63953 2.91968 8.641 2.91894 8.64265C2.9182 8.64429 2.91783 8.64608 2.91785 8.64789V11.2356C2.91784 11.2384 2.91888 11.241 2.92076 11.2431C2.92264 11.2451 2.92522 11.2464 2.92798 11.2466C3.71682 11.3115 4.44391 11.5553 5.10928 11.9781C5.33369 12.1207 5.55717 12.265 5.77971 12.411ZM10.9202 14.1174C10.119 14.0959 9.32148 14.031 8.52758 13.923C7.3995 13.7693 6.35276 13.3764 5.41072 12.7431C4.61842 12.2109 3.89789 11.8129 2.93221 11.7307C2.93038 11.7305 2.92853 11.7308 2.9268 11.7314C2.92506 11.7319 2.92347 11.7329 2.92212 11.7341C2.92077 11.7354 2.91969 11.7369 2.91895 11.7386C2.91822 11.7403 2.91784 11.7421 2.91785 11.7439V13.3952C2.91785 13.3989 2.91927 13.4025 2.92182 13.4052C2.92438 13.4079 2.92789 13.4096 2.93164 13.4099C3.57262 13.4609 4.17512 13.6348 4.73916 13.9317C5.06622 14.1039 5.48418 14.3667 5.99305 14.72C6.0682 14.7724 6.19148 14.8464 6.30097 14.8464C7.75573 14.8462 9.21049 14.846 10.6652 14.8459C11.1305 14.8459 11.1069 14.4808 11.0838 14.1394C11.0836 14.1355 11.0819 14.1318 11.0792 14.1291C11.0764 14.1263 11.0727 14.1247 11.0689 14.1245C11.0188 14.1211 10.9692 14.1188 10.9202 14.1174ZM2.9187 14.4538C2.92038 14.6745 3.04 14.8467 3.27699 14.8467C3.95174 14.8467 4.6263 14.8464 5.30067 14.8459C5.31587 14.8459 5.31709 14.8417 5.30433 14.8335C4.52863 14.3322 3.85145 13.9705 2.93192 13.8923C2.93021 13.8921 2.92847 13.8923 2.92683 13.8928C2.92518 13.8933 2.92366 13.8942 2.92236 13.8954C2.92106 13.8965 2.92001 13.898 2.91929 13.8996C2.91856 13.9012 2.91817 13.9029 2.91813 13.9047C2.91701 14.0876 2.91719 14.2707 2.9187 14.4538Z" fill="#222222"/>
<path d="M10.7829 15.3246H3.21169C2.68593 15.2543 2.43909 14.9112 2.43909 14.4079C2.43947 11.5401 2.43956 8.67125 2.43937 5.80151C2.43939 5.799 2.43887 5.79651 2.43785 5.7942C2.43683 5.7919 2.43533 5.78983 2.43344 5.78814C2.43156 5.78644 2.42934 5.78515 2.42692 5.78435C2.4245 5.78355 2.42193 5.78326 2.41939 5.7835C1.83593 5.8336 1.31186 5.6726 1.07937 5.08858C0.840697 4.48964 1.1579 3.78262 1.79484 3.60136C1.89203 3.57378 2.02873 3.5597 2.20492 3.55914C3.31949 3.55576 4.46164 3.69734 5.3958 4.36073C5.90524 4.7225 6.33615 5.16176 6.68854 5.67851C6.85037 5.91578 7.00743 6.14686 7.16983 6.39398C7.95397 7.58567 9.13102 8.2181 10.5262 8.43257C10.8985 8.4898 11.3389 8.52339 11.8474 8.53334C13.2473 8.56064 13.4317 10.4923 12.0706 10.7549C11.9284 10.7825 11.7444 10.765 11.5803 10.7822C11.5764 10.7827 11.5729 10.7845 11.5704 10.7874C11.5678 10.7902 11.5665 10.7939 11.5665 10.7977C11.565 11.9749 11.565 13.1519 11.5665 14.3285C11.5667 14.5032 11.5538 14.6356 11.5279 14.7257C11.4283 15.0728 11.1799 15.2725 10.7829 15.3246ZM6.39413 6.08747C5.91002 5.35343 5.2455 4.7255 4.4411 4.38325C3.77376 4.09954 2.97921 4.04409 2.26093 4.03762C2.09037 4.03612 1.96671 4.04859 1.88997 4.07505C1.60795 4.17215 1.43401 4.48992 1.48749 4.77672C1.57277 5.23409 1.93894 5.3402 2.35578 5.31037C2.51002 5.2993 2.61801 5.29489 2.67974 5.29714C3.48414 5.32838 4.22916 5.77787 4.75971 6.37625C5.12223 6.7853 5.47799 7.23713 5.82699 7.73175C5.98067 7.94978 6.09213 8.10074 6.16137 8.18461C6.85291 9.02251 7.78875 9.65269 8.84562 9.93471C9.76712 10.1809 10.7059 10.3006 11.6619 10.2939C11.8659 10.2924 11.9982 10.2836 12.059 10.2677C12.4103 10.1751 12.6107 9.78666 12.4837 9.44188C12.3783 9.15517 12.1519 9.01228 11.8046 9.01322C9.95288 9.01801 8.15915 8.4869 6.98885 6.96674C6.79774 6.71822 6.58834 6.38244 6.39413 6.08747ZM4.75492 8.97776C5.08873 9.26822 5.38483 9.54461 5.76507 9.95526C6.61648 10.8748 7.59567 11.4377 8.82705 11.6941C9.56503 11.848 10.3123 11.9356 11.0689 11.957C11.0712 11.9571 11.0736 11.9567 11.0758 11.9558C11.078 11.955 11.0801 11.9537 11.0818 11.9521C11.0835 11.9504 11.0848 11.9485 11.0858 11.9463C11.0867 11.9442 11.0872 11.9419 11.0872 11.9395V10.778C11.0872 10.7745 11.0858 10.7711 11.0835 10.7686C11.0811 10.7661 11.0779 10.7646 11.0745 10.7644C10.3975 10.7295 9.72893 10.6381 9.06882 10.49C7.60186 10.1607 6.41243 9.36701 5.54103 8.15675C5.12391 7.57779 4.82191 7.1784 4.44194 6.74299C4.05606 6.30025 3.52327 5.91888 2.93755 5.80123C2.93515 5.80077 2.93267 5.80084 2.9303 5.80144C2.92793 5.80203 2.92572 5.80314 2.92384 5.80467C2.92196 5.8062 2.92044 5.80813 2.91941 5.81031C2.91837 5.81249 2.91784 5.81486 2.91785 5.81727V8.13198C2.91782 8.13587 2.91923 8.13964 2.92182 8.1426C2.92441 8.14555 2.928 8.14747 2.93192 8.14802C3.62619 8.24766 4.23385 8.52424 4.75492 8.97776ZM5.77971 12.411C6.58524 12.9396 7.51602 13.2855 8.46791 13.4256C9.32898 13.5521 10.1954 13.624 11.0672 13.6412C11.0698 13.6413 11.0724 13.6408 11.0748 13.6398C11.0772 13.6388 11.0794 13.6374 11.0813 13.6356C11.0831 13.6337 11.0846 13.6315 11.0856 13.6291C11.0866 13.6267 11.0872 13.6241 11.0872 13.6215V12.4546C11.0872 12.4501 11.0854 12.4457 11.0822 12.4425C11.0791 12.4392 11.0748 12.4373 11.0703 12.4371C10.263 12.4156 9.46492 12.3211 8.67591 12.1537C7.43524 11.8906 6.34994 11.2882 5.48474 10.3656C5.11744 9.97412 4.77941 9.6268 4.4259 9.32029C4.0039 8.95421 3.506 8.72595 2.93221 8.6355C2.93042 8.63522 2.9286 8.63532 2.92686 8.63582C2.92512 8.63631 2.92351 8.63717 2.92215 8.63835C2.92078 8.63953 2.91968 8.641 2.91894 8.64265C2.9182 8.64429 2.91783 8.64608 2.91785 8.64789V11.2356C2.91784 11.2384 2.91888 11.241 2.92076 11.2431C2.92264 11.2451 2.92522 11.2464 2.92798 11.2466C3.71682 11.3115 4.44391 11.5553 5.10928 11.9781C5.33369 12.1207 5.55717 12.265 5.77971 12.411ZM10.9202 14.1174C10.119 14.0959 9.32148 14.031 8.52758 13.923C7.3995 13.7693 6.35276 13.3764 5.41072 12.7431C4.61842 12.2109 3.89789 11.8129 2.93221 11.7307C2.93038 11.7305 2.92853 11.7308 2.9268 11.7314C2.92506 11.7319 2.92347 11.7329 2.92212 11.7341C2.92077 11.7354 2.91969 11.7369 2.91895 11.7386C2.91822 11.7403 2.91784 11.7421 2.91785 11.7439V13.3952C2.91785 13.3989 2.91927 13.4025 2.92182 13.4052C2.92438 13.4079 2.92789 13.4096 2.93164 13.4099C3.57262 13.4609 4.17512 13.6348 4.73916 13.9317C5.06622 14.1039 5.48418 14.3667 5.99305 14.72C6.0682 14.7724 6.19148 14.8464 6.30097 14.8464C7.75573 14.8462 9.21049 14.846 10.6652 14.8459C11.1305 14.8459 11.1069 14.4808 11.0838 14.1394C11.0836 14.1355 11.0819 14.1318 11.0792 14.1291C11.0764 14.1263 11.0727 14.1247 11.0689 14.1245C11.0188 14.1211 10.9692 14.1188 10.9202 14.1174ZM2.9187 14.4538C2.92038 14.6745 3.04 14.8467 3.27699 14.8467C3.95174 14.8467 4.6263 14.8464 5.30067 14.8459C5.31587 14.8459 5.31709 14.8417 5.30433 14.8335C4.52863 14.3322 3.85145 13.9705 2.93192 13.8923C2.93021 13.8921 2.92847 13.8923 2.92683 13.8928C2.92518 13.8933 2.92366 13.8942 2.92236 13.8954C2.92106 13.8965 2.92001 13.898 2.91929 13.8996C2.91856 13.9012 2.91817 13.9029 2.91813 13.9047C2.91701 14.0876 2.91719 14.2707 2.9187 14.4538Z" stroke="#222222" stroke-width="0.2" mask="url(#path-2-outside-1_178_383)"/>
</svg>
