<svg width="17" height="16" viewBox="0 0 17 16" fill="none" xmlns="http://www.w3.org/2000/svg">
<path d="M14.6678 9.3566L15.9962 10.1337L15.9989 10.1364L16 10.1401L15.9991 10.1438L15.9965 10.1466L8.73049 14.9974C8.72814 14.999 8.72537 14.9999 8.72252 15C8.71967 15.0001 8.71685 14.9994 8.7144 14.9979L1.2115 10.4988L1.20903 10.4963L1.20799 10.493L1.20863 10.4896L1.2108 10.4868L2.37513 9.58411L2.37725 9.58139L2.37788 9.57804L2.37686 9.57483L2.37443 9.57248L1.1671 8.84837C1.16565 8.84752 1.16443 8.84634 1.16356 8.84492C1.16268 8.84351 1.16217 8.8419 1.16207 8.84024C1.16196 8.83858 1.16227 8.83691 1.16296 8.83538C1.16366 8.83384 1.16472 8.83249 1.16605 8.83143L2.3288 7.92976L2.33136 7.92649L2.33211 7.92244L2.33087 7.9185L2.32793 7.91556L1.00783 7.12456C0.996528 7.11783 0.99746 7.1135 1.01063 7.11156L3.23071 6.79167C3.23588 6.7909 3.24057 6.78821 3.24383 6.78414C4.57202 5.06313 5.8998 3.34194 7.22718 1.62059C7.28942 1.53984 7.34757 1.47581 7.40165 1.42848C7.57659 1.27555 7.77403 1.16003 7.99396 1.08191C8.57419 0.876117 9.07384 1.06976 9.44027 1.53215C9.90075 2.11342 10.1885 2.82214 10.4994 3.48603C10.5887 3.67728 10.6904 3.89505 10.8513 4.03874C10.9137 4.09474 10.9815 4.09793 11.0546 4.04832C11.2465 3.91797 11.4167 3.7505 11.5869 3.59449C11.9934 3.22208 12.521 2.90716 13.0911 3.13005C13.4635 3.27563 13.7736 3.60527 14.0081 3.93867C14.4732 4.60046 14.7628 5.3301 14.8769 6.1276C14.8773 6.13042 14.8783 6.13313 14.8798 6.13557C14.8813 6.13801 14.8833 6.14013 14.8857 6.1418L15.8998 6.83632L15.9029 6.83975L15.904 6.84419L15.9029 6.84863L15.8998 6.85205L14.6296 7.70002L14.6276 7.70225L14.6269 7.70516L14.6278 7.70801L14.6299 7.71011L15.9481 8.48075L15.9508 8.48335L15.9518 8.4869L15.951 8.4905L15.9484 8.49324L14.6675 9.34907L14.666 9.35075L14.6655 9.35293L14.6662 9.35505L14.6678 9.3566ZM7.56092 2.56605C7.91773 2.07083 8.30741 1.63376 8.79692 1.29984C8.80147 1.29676 8.80117 1.29414 8.79605 1.29197C8.36441 1.10962 7.90969 1.30035 7.57281 1.57183C7.52945 1.60684 7.48697 1.65126 7.44536 1.70509C6.95364 2.34088 6.46005 2.9806 5.9646 3.62425C5.95505 3.63668 5.95814 3.64176 5.97387 3.63948C6.26594 3.59706 6.55714 3.60224 6.84746 3.65505C6.85333 3.65613 6.85939 3.65538 6.86479 3.65289C6.87019 3.6504 6.87465 3.64631 6.87753 3.64119C7.08243 3.27249 7.31022 2.91411 7.56092 2.56605ZM7.10183 3.71526C7.63557 3.87965 8.09238 4.21391 8.43521 4.64106C8.44477 4.65303 8.4524 4.65195 8.45811 4.63781C8.78293 3.83997 9.2028 3.09344 9.71772 2.39824C9.71909 2.39638 9.71993 2.39419 9.72014 2.3919C9.72036 2.38962 9.71994 2.38732 9.71894 2.38524C9.55058 2.04842 9.32191 1.682 9.03136 1.43344C9.02877 1.43121 9.02554 1.42984 9.02214 1.42953C9.01874 1.42922 9.01535 1.42999 9.01248 1.43173C8.66895 1.63495 8.36388 1.92953 8.10846 2.22991C7.72141 2.68494 7.39046 3.18838 7.09781 3.70551L7.09691 3.70838L7.09739 3.71134L7.09915 3.7138L7.10183 3.71526ZM9.82943 2.62148C9.32838 3.31851 8.92169 4.06486 8.60933 4.86053C8.60841 4.86297 8.60809 4.86559 8.60839 4.86818C8.6087 4.87076 8.60962 4.87324 8.61108 4.87541C8.89639 5.29726 9.08713 5.754 9.21912 6.24238C9.29802 6.53456 9.42267 6.80615 9.59307 7.05716C9.59464 7.05948 9.59695 7.06112 9.59953 7.06178L9.60443 7.06332L9.60661 7.06346L9.60863 7.06266L9.6101 7.06109L9.61072 7.05904C9.64371 6.68475 9.68491 6.31144 9.73432 5.93909C9.82278 5.27416 10.0452 4.54902 10.5943 4.1135C10.5961 4.11205 10.5973 4.10997 10.5977 4.10768C10.598 4.10539 10.5974 4.10306 10.596 4.10118C10.4741 3.92898 10.3605 3.72895 10.2553 3.50109C10.1192 3.20595 9.98281 2.91326 9.84621 2.62302C9.84155 2.61298 9.83595 2.61247 9.82943 2.62148ZM13.9848 4.31073C13.7476 3.90788 13.3297 3.37536 12.8263 3.2888C12.8236 3.28832 12.8208 3.28846 12.8182 3.2892C12.8156 3.28994 12.8132 3.29127 12.8112 3.29308C11.7965 4.21682 11.3535 5.57318 11.2607 6.89225C11.2601 6.90115 11.2636 6.90315 11.2712 6.89824C11.7013 6.61821 12.1485 6.33715 12.6817 6.30876C12.6838 6.30861 12.6858 6.30779 12.6873 6.30643C12.6889 6.30508 12.69 6.30325 12.6904 6.30123C12.8493 5.52375 13.3792 4.8306 13.9825 4.3239C13.9844 4.32233 13.9857 4.32016 13.9861 4.31776C13.9865 4.31535 13.986 4.31287 13.9848 4.31073ZM11.5142 3.96057C11.3242 4.12735 11.0675 4.41183 10.7827 4.26095C10.7804 4.25973 10.7778 4.25917 10.7752 4.25935C10.7726 4.25953 10.77 4.26045 10.7679 4.26198C10.2761 4.61523 10.0446 5.32411 9.96614 5.88743C9.91206 6.2754 9.86235 6.73345 9.81701 7.26158C9.81675 7.26424 9.81719 7.26692 9.81829 7.26934C9.8194 7.27177 9.82113 7.27387 9.82331 7.27544C9.92249 7.34694 10.0245 7.38013 10.1293 7.375C10.4296 7.36063 10.7537 7.21026 11.0184 7.051C11.0207 7.04958 11.0227 7.04763 11.0241 7.0453C11.0255 7.04298 11.0263 7.04036 11.0264 7.03766C11.0897 5.71106 11.5065 4.29927 12.4677 3.31668C12.4781 3.30608 12.4761 3.303 12.4617 3.30744C12.0777 3.42856 11.8095 3.70123 11.5142 3.96057ZM4.30116 5.79026C4.74696 5.76358 5.19276 5.78205 5.63419 5.84706C5.63632 5.84735 5.6385 5.84703 5.64045 5.84611C5.64241 5.8452 5.64406 5.84375 5.6452 5.84192C6.03156 5.19565 6.38488 4.53106 6.74624 3.8711L6.74712 3.86795L6.74641 3.86475L6.74426 3.86225L6.74117 3.86101C6.41017 3.81322 6.08197 3.82685 5.75656 3.90189C5.75125 3.90311 5.7465 3.90613 5.7431 3.91044L4.29766 5.78393C4.29405 5.78849 4.29521 5.7906 4.30116 5.79026ZM5.89048 5.89341C6.00446 5.91907 6.11157 5.94929 6.2118 5.98408C7.26914 6.35101 7.3027 7.54965 7.62822 8.40292L7.63007 8.40526L7.63295 8.40617L7.63801 8.40634L7.63988 8.40596L7.64143 8.40486L7.64238 8.40324L7.64256 8.40138C7.64105 8.38917 7.64215 8.37081 7.64588 8.3463C7.708 7.93837 7.78195 7.42318 7.86773 6.80073C7.95654 6.15668 8.12088 5.52443 8.34955 4.9151C8.35089 4.91152 8.35133 4.90768 8.35081 4.90392C8.35029 4.90016 8.34884 4.8966 8.34657 4.89355C8.00025 4.43048 7.54728 4.07894 6.9847 3.91575C6.98292 3.91521 6.98101 3.91529 6.97929 3.91598C6.97757 3.91666 6.97615 3.91791 6.97526 3.91951C6.61582 4.574 6.26722 5.23773 5.88366 5.87819C5.88282 5.87959 5.88233 5.88116 5.88224 5.88278C5.88214 5.8844 5.88243 5.88602 5.8831 5.8875C5.88376 5.88899 5.88478 5.8903 5.88606 5.89133C5.88735 5.89235 5.88886 5.89307 5.89048 5.89341ZM12.9283 6.32689C13.6219 6.46135 13.9843 7.14064 14.1294 7.75082C14.1298 7.75244 14.1306 7.75394 14.1317 7.7552C14.1328 7.75646 14.1342 7.75743 14.1358 7.75803C14.1374 7.75864 14.1391 7.75886 14.1408 7.75868C14.1424 7.75849 14.1441 7.75791 14.1455 7.75698L15.5004 6.85257C15.5021 6.8514 15.5035 6.84984 15.5045 6.84801C15.5055 6.84619 15.506 6.84416 15.506 6.84209C15.5061 6.84003 15.5056 6.83799 15.5046 6.83615C15.5036 6.83431 15.5022 6.83272 15.5005 6.83153L14.6722 6.26428C14.6698 6.26261 14.6679 6.26049 14.6664 6.25804C14.6649 6.2556 14.664 6.25288 14.6636 6.25008C14.5889 5.6403 14.4032 5.06187 14.1065 4.51481L14.1053 4.51464C13.5533 4.98199 13.0811 5.61047 12.9166 6.30893C12.9162 6.31087 12.9161 6.31289 12.9164 6.31486C12.9168 6.31683 12.9175 6.31871 12.9186 6.32039C12.9197 6.32206 12.9211 6.3235 12.9228 6.32462C12.9245 6.32574 12.9264 6.32651 12.9283 6.32689ZM7.81843 8.76523C8.20672 9.34839 8.85549 9.0947 9.37034 8.89353C9.37286 8.89253 9.37508 8.89092 9.37679 8.88886C9.3785 8.8868 9.37965 8.88434 9.38013 8.88172C9.47226 8.38667 9.52821 7.87758 9.57646 7.37688C9.57668 7.37424 9.5763 7.37159 9.57537 7.36908C9.57444 7.36657 9.57296 7.36427 9.57104 7.36234C9.31003 7.10061 9.11422 6.71366 9.02017 6.36931C8.90094 5.93276 8.75426 5.5299 8.5165 5.14142C8.51172 5.13355 8.50782 5.13395 8.50479 5.14262C8.29972 5.72013 8.16109 6.30773 8.07892 6.91312C7.99652 7.52154 7.90765 8.12944 7.81231 8.73683C7.81074 8.74676 7.81291 8.75686 7.81843 8.76523ZM3.53543 6.79663C3.95291 6.82845 4.36007 6.92544 4.74154 7.0977C4.74444 7.09903 4.74772 7.09939 4.75085 7.09871C4.75398 7.09803 4.75679 7.09635 4.75885 7.09394C5.0353 6.76698 5.28524 6.4216 5.50866 6.05781L5.50944 6.05526L5.5089 6.05265L5.50716 6.0506L5.50464 6.04959C5.04451 5.99098 4.58344 5.98237 4.12144 6.02376C4.11873 6.02403 4.11611 6.02484 4.11374 6.02613C4.11136 6.02742 4.10928 6.02918 4.10763 6.03129L3.52791 6.78038C3.52034 6.79019 3.52284 6.7956 3.53543 6.79663ZM6.616 6.49351C6.3861 6.25162 6.0882 6.15463 5.75831 6.0927C5.75647 6.09235 5.75456 6.09257 5.75284 6.09334C5.75112 6.0941 5.74967 6.09538 5.7487 6.09698C5.51478 6.48358 5.2529 6.85103 4.96304 7.19931L4.96165 7.20209L4.96156 7.20519L4.9628 7.20809L4.96514 7.21026C5.27469 7.38828 5.54456 7.61186 5.77475 7.881C6.02457 8.17318 6.14852 8.51873 6.24327 8.87659C6.2945 9.07007 6.34642 9.25721 6.39904 9.45667C6.49205 9.80992 6.64711 10.2018 6.93487 10.4153C7.00271 10.4656 7.10352 10.526 7.23732 10.5966L7.24054 10.5975L7.24381 10.5968L7.24642 10.5948L7.24781 10.5918C7.3675 10.0007 7.47531 9.40746 7.57123 8.81227C7.57214 8.80672 7.57122 8.80108 7.56861 8.79619C7.34553 8.38821 7.24361 7.93916 7.11984 7.49662C7.02124 7.14406 6.88173 6.77285 6.616 6.49351ZM11.153 9.03619C11.3095 9.16153 11.4344 9.31229 11.5275 9.48849C11.5283 9.49002 11.5294 9.49137 11.5308 9.49244C11.5322 9.49352 11.5338 9.49429 11.5355 9.49471C11.5372 9.49513 11.539 9.49519 11.5408 9.49488C11.5425 9.49458 11.5442 9.49391 11.5457 9.49294L12.4516 8.88737C12.454 8.88574 12.4561 8.88366 12.4577 8.88125C12.4593 8.87884 12.4604 8.87615 12.4609 8.87334C12.4933 8.69566 12.5115 8.5656 12.5154 8.48315C12.5471 7.83687 12.5652 7.18546 12.652 6.54927C12.6523 6.54681 12.6521 6.5443 12.6513 6.54193C12.6505 6.53956 12.6492 6.53741 12.6474 6.53562C12.6456 6.53384 12.6434 6.53247 12.641 6.53164C12.6386 6.5308 12.636 6.53051 12.6334 6.5308C12.1058 6.59118 11.684 6.89995 11.2514 7.16955C11.2491 7.17102 11.2472 7.17301 11.2459 7.17534C11.2445 7.17766 11.2438 7.18026 11.2437 7.18289C11.2319 7.79598 11.2324 8.41575 11.1479 9.02354C11.1476 9.0259 11.1479 9.02829 11.1488 9.03051C11.1497 9.03272 11.1511 9.03468 11.153 9.03619ZM13.9313 7.89332C13.8198 7.36114 13.5123 6.66115 12.8934 6.54448C12.8915 6.54414 12.8896 6.54417 12.8878 6.54458C12.8859 6.54499 12.8842 6.54576 12.8826 6.54685C12.8811 6.54793 12.8798 6.54932 12.8788 6.55091C12.8778 6.5525 12.8772 6.55427 12.877 6.55611C12.8006 7.11977 12.7789 7.61927 12.7521 8.25529C12.7458 8.40411 12.7339 8.55277 12.7165 8.70125C12.7156 8.70832 12.7183 8.70986 12.7243 8.70587L13.9276 7.90204C13.929 7.90113 13.9301 7.89982 13.9308 7.89827C13.9314 7.89672 13.9316 7.895 13.9313 7.89332ZM4.57878 7.26911C4.20419 7.11355 3.81556 7.0266 3.41288 7.00824C3.34505 7.00504 3.27156 7.00909 3.19243 7.02038C2.68602 7.092 2.17583 7.16544 1.66185 7.24071C1.64623 7.24299 1.64512 7.24818 1.65853 7.25628L3.20239 8.18173C3.20464 8.18308 3.20716 8.18392 3.20979 8.18422C3.21242 8.18451 3.21508 8.18425 3.2176 8.18344C3.75081 8.01358 4.20675 7.68479 4.58245 7.28502C4.58354 7.28385 4.58433 7.28244 4.58474 7.28091C4.58515 7.27938 4.58518 7.27776 4.58482 7.27621C4.58446 7.27465 4.58373 7.27319 4.58268 7.27196C4.58162 7.27072 4.58029 7.26975 4.57878 7.26911ZM9.84621 8.74658C10.2091 8.65832 10.6037 8.72264 10.9326 8.88874L10.9349 8.88934L10.9373 8.88875L10.9392 8.88711L10.9401 8.8848C11.0002 8.3646 11.0074 7.83875 11.0153 7.31735C11.0154 7.30868 11.0116 7.30657 11.0041 7.31102C10.6716 7.50586 10.1782 7.69249 9.79918 7.52262L9.79633 7.52207L9.79351 7.52287L9.79133 7.52485L9.79027 7.52758C9.73835 7.95114 9.70058 8.30678 9.62401 8.795L9.62427 8.79775L9.62584 8.80006L9.62835 8.80135L9.63118 8.80132C9.70309 8.78228 9.77477 8.76403 9.84621 8.74658ZM5.82789 8.36409C5.63401 7.9614 5.20517 7.59071 4.80989 7.38064C4.8077 7.37947 4.80517 7.37904 4.80273 7.37945C4.80028 7.37985 4.79806 7.38106 4.79643 7.38286C4.42511 7.78469 3.98805 8.1222 3.4725 8.32885C3.46236 8.33284 3.46195 8.33763 3.47127 8.34322L6.38698 10.0915C6.39234 10.0947 6.39374 10.0934 6.39117 10.0877C6.21845 9.70146 6.14939 9.39765 6.01985 8.90738C5.96309 8.69321 5.8991 8.51211 5.82789 8.36409ZM1.5559 8.82305C3.92424 10.2456 6.29397 11.6654 8.66405 13.0848C8.66542 13.0856 8.66701 13.086 8.66862 13.0859C8.67024 13.0859 8.67181 13.0853 8.67314 13.0844L15.5337 8.50419L15.5356 8.50214L15.5362 8.49947L15.5354 8.49686L15.5334 8.49495L14.4255 7.84679C14.423 7.8453 14.4202 7.84456 14.4172 7.84465C14.4143 7.84474 14.4115 7.84566 14.4091 7.8473L8.64657 11.6944C8.64414 11.696 8.64127 11.6969 8.63832 11.6969C8.63537 11.697 8.63247 11.6962 8.62996 11.6947L2.55065 8.0495C2.54824 8.04805 2.54543 8.04735 2.54261 8.0475C2.5398 8.04765 2.53711 8.04865 2.53492 8.05036L1.55503 8.81039L1.55272 8.81331L1.55206 8.81695L1.55321 8.82046L1.5559 8.82305ZM8.55794 11.3943L8.62227 11.433C8.62493 11.4345 8.62799 11.4353 8.63109 11.4352C8.63419 11.4351 8.6372 11.4342 8.63975 11.4325C9.24359 11.0298 9.84743 10.6265 10.4513 10.2227C10.476 10.2062 10.4959 10.1857 10.5111 10.1615C10.7071 9.84647 10.8355 9.50502 10.8962 9.13712C10.8966 9.13461 10.8963 9.13202 10.8952 9.12971C10.8941 9.12739 10.8923 9.12545 10.8901 9.12412C10.4771 8.87693 10.027 8.87848 9.58572 9.05347C9.58321 9.05447 9.58099 9.05608 9.57928 9.05814C9.57756 9.06021 9.57641 9.06266 9.57593 9.06528C9.4831 9.56666 9.35233 10.0634 9.14674 10.5327C9.00566 10.8544 8.8179 11.149 8.55654 11.3803L8.5542 11.3836L8.55365 11.3876L8.55499 11.3914L8.55794 11.3943ZM9.32157 9.15337C9.26795 9.16615 9.21556 9.18257 9.1644 9.20264C8.6901 9.38893 8.16283 9.44469 7.76808 9.05604C7.76261 9.05068 7.75928 9.0517 7.75812 9.05912C7.66686 9.61439 7.56424 10.1677 7.45025 10.7189C7.44975 10.7217 7.45008 10.7245 7.4512 10.727C7.45232 10.7295 7.45419 10.7316 7.45655 10.733L8.33888 11.2617C8.34126 11.2632 8.34406 11.2639 8.34689 11.2637C8.34972 11.2635 8.35242 11.2625 8.35462 11.2607C8.95007 10.7686 9.18992 9.87817 9.32856 9.15987L9.32837 9.15711L9.32685 9.15478L9.32439 9.15342L9.32157 9.15337ZM11.0929 9.31161C11.0459 9.52042 10.9799 9.72273 10.8948 9.91854C10.8908 9.92766 10.8931 9.92943 10.9014 9.92384L11.3397 9.62927C11.3417 9.62794 11.3432 9.62595 11.3438 9.62368C11.3444 9.62142 11.3441 9.61903 11.3431 9.61696C11.2808 9.4963 11.2013 9.38773 11.1044 9.29125C11.0988 9.28566 11.0958 9.28675 11.0955 9.2945C11.0953 9.29918 11.0944 9.30488 11.0929 9.31161ZM1.60835 10.4779C3.97197 11.8993 6.34082 13.3177 8.70531 14.7335C8.70863 14.7355 8.71249 14.7365 8.71643 14.7365C8.72038 14.7364 8.72423 14.7351 8.72752 14.733L15.5741 10.1623C15.5758 10.1612 15.5771 10.1597 15.578 10.158C15.5789 10.1563 15.5793 10.1544 15.5793 10.1524C15.5792 10.1505 15.5787 10.1486 15.5777 10.1469C15.5767 10.1452 15.5753 10.1438 15.5736 10.1428L14.4637 9.49413C14.4615 9.49286 14.459 9.49221 14.4565 9.49227C14.454 9.49233 14.4516 9.4931 14.4495 9.49447L8.68748 13.3412C8.68363 13.3438 8.67908 13.3452 8.67439 13.3453C8.6697 13.3454 8.66507 13.3441 8.66108 13.3417L2.59663 9.70557C2.59396 9.70395 2.59085 9.70319 2.58772 9.70337C2.58459 9.70356 2.5816 9.70468 2.57915 9.70659L1.6073 10.4605C1.60592 10.4615 1.60481 10.4629 1.60409 10.4645C1.60336 10.466 1.60303 10.4677 1.60314 10.4695C1.60324 10.4712 1.60377 10.4728 1.60468 10.4743C1.60559 10.4758 1.60685 10.477 1.60835 10.4779Z" fill="#222222" stroke="#222222" stroke-width="0.3"/>
</svg>
